<?xml version="1.0" encoding="iso-8859-1"?>
<!-- Generator: Adobe Illustrator 19.0.0, SVG Export Plug-In . SVG Version: 6.00 Build 0)  -->
<svg version="1.1" id="Capa_1" xmlns="http://www.w3.org/2000/svg" xmlns:xlink="http://www.w3.org/1999/xlink" x="0px" y="0px"
	 viewBox="0 0 512 512" style="enable-background:new 0 0 512 512;" xml:space="preserve">
<path style="fill:#FCBF29;" d="M256,0c-24.901,0-45,20.099-45,45c0,24.899,20.099,45,45,45s45-20.101,45-45
	C301,20.099,280.901,0,256,0z M256,60c-8.401,0-15-6.601-15-15c0-8.401,6.599-15,15-15s15,6.599,15,15C271,53.399,264.401,60,256,60
	z"/>
<g>
	<path style="fill:#FEA832;" d="M301,45c0,24.899-20.099,45-45,45V60c8.401,0,15-6.601,15-15c0-8.401-6.599-15-15-15V0
		C280.901,0,301,20.099,301,45z"/>
	<path style="fill:#FEA832;" d="M298.299,422h-84.598C199.6,422,196,438.5,196,452c0,32.999,27.001,60,60,60s60-27.001,60-60
		C316,438.5,312.4,422,298.299,422z"/>
</g>
<path style="fill:#FE8821;" d="M316,452c0,32.999-27.001,60-60,60v-90h42.299C312.4,422,316,438.5,316,452z"/>
<path style="fill:#FED42D;" d="M372.7,107.999C341.499,77.1,299.801,60,256,60c-78.3,0-146.4,55.499-161.7,131.999
	C92.5,201.299,99.401,210,109,210h294.001c9.598,0,16.5-8.701,14.7-18.001C411.099,159.899,395.799,131.1,372.7,107.999z"/>
<g>
	<path style="fill:#FCBF29;" d="M417.7,191.999c1.8,9.3-5.101,18.001-14.7,18.001H256V60c43.801,0,85.499,17.1,116.7,47.999
		C395.799,131.1,411.099,159.899,417.7,191.999z"/>
	<path style="fill:#FCBF29;" d="M449.5,370.399c-18.6-37.2-28.5-80.9-28.5-122.599c0-24.901,1.199-44.101-6.599-67.8H256
		c-151.199,0-158.401,0-158.401,0C89.801,203.699,91,222.9,91,247.8c0,41.699-9.901,85.399-28.5,122.599C57.7,380.3,64.9,392,76,392
		h360C447.1,392,454.3,380.3,449.5,370.399z"/>
</g>
<path style="fill:#FEA832;" d="M449.5,370.399C454.3,380.3,447.1,392,436,392H256V180h158.401c7.798,23.699,6.599,42.9,6.599,67.8
	C421,289.499,430.901,333.199,449.5,370.399z"/>
<path style="fill:#FED42D;" d="M436,362H76c-59.399,0-59.399,90,0,90h360C495.399,452,495.399,362,436,362z"/>
<path style="fill:#FCBF29;" d="M436,452H256v-90h180C495.399,362,495.399,452,436,452z"/>
<g>
</g>
<g>
</g>
<g>
</g>
<g>
</g>
<g>
</g>
<g>
</g>
<g>
</g>
<g>
</g>
<g>
</g>
<g>
</g>
<g>
</g>
<g>
</g>
<g>
</g>
<g>
</g>
<g>
</g>
</svg>
